<svg width="123" height="29" viewBox="0 0 123 29" fill="none" xmlns="http://www.w3.org/2000/svg">
<path d="M20.621 16.5265C20.621 18.3099 19.482 18.8612 18.3755 18.8612C17.3016 18.8612 16.0975 18.3099 16.0975 16.5265V8.14966H10.8799V17.629C10.8799 20.8068 13.4507 23.6387 18.3755 23.6387C23.3329 23.6387 25.8386 20.8176 25.8386 17.629V8.14966H20.621V16.5265Z" fill="#FAFAFA"/>
<path d="M29.0603 12.5921V23.2495H34.2671V8.14966H29.0603V12.5921Z" fill="#FAFAFA"/>
<path d="M31.6426 0C29.8853 0 28.5186 1.39433 28.5186 3.14536C28.5186 4.89638 29.8853 6.25829 31.6426 6.25829C33.3999 6.25829 34.7993 4.89638 34.7993 3.14536C34.8101 1.39433 33.4108 0 31.6426 0Z" fill="#FAFAFA"/>
<path d="M44.7569 12.4625C46.2213 12.4625 47.2627 13.4353 47.5881 14.8621L52.7407 13.8568C51.9597 10.1278 48.7054 7.76068 44.7244 7.76068C40.1901 7.76068 36.5779 11.0682 36.5779 15.6835C36.5779 20.2989 40.1901 23.6388 44.7244 23.6388C48.6946 23.6388 51.9922 21.2717 52.7407 17.5318L47.5881 16.5266C47.2627 17.9534 46.2213 18.9262 44.7569 18.9262C43.0322 18.9262 41.7955 17.5318 41.7955 15.6835C41.7955 13.8028 43.0322 12.4625 44.7569 12.4625Z" fill="#FAFAFA"/>
<path d="M61.9609 7.76068C57.3616 7.76068 53.9446 11.1006 53.9446 15.6835C53.9446 20.2989 57.4266 23.6388 62.026 23.6388C65.5406 23.6388 68.4477 22.1796 69.8145 18.6992L64.6619 17.8561C64.2389 18.7316 63.1975 19.218 62.1562 19.218C60.6592 19.218 59.6504 18.2128 59.4226 17.1427H70.1074V16.8509C70.1074 10.4196 66.2348 7.76068 61.9609 7.76068ZM59.2599 13.9001C59.5202 12.7652 60.5616 11.9221 61.9609 11.9221C63.3602 11.9221 64.4016 12.7652 64.6619 13.9001H59.2599Z" fill="#FAFAFA"/>
<path d="M98.4956 7.76068C93.9613 7.76068 90.3491 11.0682 90.3491 15.6835C90.3491 20.2989 93.9613 23.6388 98.4956 23.6388C103.03 23.6388 106.642 20.2989 106.642 15.6835C106.642 11.0682 103.019 7.76068 98.4956 7.76068ZM98.4956 18.9262C96.7709 18.9262 95.5668 17.5318 95.5668 15.6835C95.5668 13.8028 96.7709 12.4733 98.4956 12.4733C100.188 12.4733 101.424 13.8028 101.424 15.6835C101.424 17.5318 100.188 18.9262 98.4956 18.9262Z" fill="#FAFAFA"/>
<path d="M123 8.14966H117.164L115.114 11.9435L113.15 8.14966H107.13L111.491 15.6834L107.065 23.2495H113.053L115.016 19.3476L117.034 23.2495H123L118.661 15.5861L123 8.14966Z" fill="#FAFAFA"/>
<path d="M0.650852 12.6355H2.63595V23.7361C2.63595 24.3198 2.34307 24.5468 1.46442 24.5468H0V29H2.4407C4.55596 29 7.85362 28.8703 7.85362 25.1412V8.18225H0.650852V12.6355Z" fill="#FAFAFA"/>
<path d="M5.055 0.0325928C3.2977 0.0325928 1.93091 1.42693 1.93091 3.17795C1.93091 4.92898 3.2977 6.29088 5.055 6.29088C6.8123 6.29088 8.21163 4.92898 8.21163 3.17795C8.21163 1.42693 6.8123 0.0325928 5.055 0.0325928Z" fill="#FAFAFA"/>
<path d="M81.8119 7.76069C79.4363 7.76069 78.0044 8.73348 77.3102 9.80355C77.3102 9.80355 77.4403 8.89561 77.4403 7.79312V0.518799H72.2227V23.2497H77.4403V21.5959C78.1237 22.6336 79.6532 23.6388 81.8119 23.6388C85.7495 23.6388 88.917 20.2989 88.917 15.6835C88.917 11.0682 85.7495 7.76069 81.8119 7.76069ZM80.4125 18.9262C78.6227 18.9262 77.3535 17.4346 77.3535 15.6835C77.3535 13.9001 78.6227 12.4733 80.4125 12.4733C82.2349 12.4733 83.5041 13.9001 83.5041 15.6835C83.5041 17.4346 82.2349 18.9262 80.4125 18.9262Z" fill="#FAFAFA"/>
</svg>
